<svg width="69" height="45" viewBox="0 0 69 45" fill="none" xmlns="http://www.w3.org/2000/svg">
<g opacity="0.1" clip-path="url(#clip0_577_514)">
<path d="M32.1429 2.14286C32.1429 3.21429 31.0714 4.28571 30 4.28571C19.7143 4.28571 10.7143 10.5 6.64286 19.2857C8.78571 18 11.3571 17.1429 13.9286 17.1429C21.6429 17.1429 27.8571 23.3571 27.8571 31.0714C27.8571 38.7857 21.6429 45 13.9286 45C6.21429 45 0 38.7857 0 31.0714V30C0 13.5 13.5 0 30 0C31.0714 0 32.1429 1.07143 32.1429 2.14286Z" fill="#033535"/>
<path d="M68.5713 2.14286C68.5713 3.21429 67.4999 4.28571 66.4285 4.28571C56.1428 4.28571 47.1428 10.5 43.0713 19.2857C45.2142 18 47.7856 17.1429 50.357 17.1429C58.0713 17.1429 64.2856 23.3571 64.2856 31.0714C64.2856 38.7857 58.0713 45 50.357 45C42.6428 45 36.4285 38.7857 36.4285 31.0714V30C36.4285 13.5 49.9285 0 66.4285 0C67.4999 0 68.5713 1.07143 68.5713 2.14286Z" fill="#033535"/>
</g>
<defs>
<clipPath id="clip0_577_514">
<rect width="68.5714" height="45" fill="white"/>
</clipPath>
</defs>
</svg>
